<?xml version="1.0" encoding="UTF-8" standalone="no"?>
<!-- Created with Inkscape (http://www.inkscape.org/) -->

<svg
   xmlns:dc="http://purl.org/dc/elements/1.1/"
   xmlns:cc="http://creativecommons.org/ns#"
   xmlns:rdf="http://www.w3.org/1999/02/22-rdf-syntax-ns#"
   xmlns:svg="http://www.w3.org/2000/svg"
   xmlns="http://www.w3.org/2000/svg"
   xmlns:sodipodi="http://sodipodi.sourceforge.net/DTD/sodipodi-0.dtd"
   xmlns:inkscape="http://www.inkscape.org/namespaces/inkscape"
   version="1.1"
   id="svg741"
   width="1626.6667"
   height="1418.6667"
   viewBox="0 0 1626.6667 1418.6667"
   sodipodi:docname="spinnntiltline.svg"
   inkscape:version="0.92.2 (5c3e80d, 2017-08-06)">
  <metadata
     id="metadata747">
    <rdf:RDF>
      <cc:Work
         rdf:about="">
        <dc:format>image/svg+xml</dc:format>
        <dc:type
           rdf:resource="http://purl.org/dc/dcmitype/StillImage" />
        <dc:title></dc:title>
      </cc:Work>
    </rdf:RDF>
  </metadata>
  <defs
     id="defs745" />
  <sodipodi:namedview
     pagecolor="#ffffff"
     bordercolor="#666666"
     borderopacity="1"
     objecttolerance="10"
     gridtolerance="10"
     guidetolerance="10"
     inkscape:pageopacity="0"
     inkscape:pageshadow="2"
     inkscape:window-width="1853"
     inkscape:window-height="1025"
     id="namedview743"
     showgrid="false"
     inkscape:zoom="0.42067534"
     inkscape:cx="99.404688"
     inkscape:cy="1039.4275"
     inkscape:window-x="67"
     inkscape:window-y="27"
     inkscape:window-maximized="1"
     inkscape:current-layer="svg741" />
  <path
     style="fill:#000000;stroke-width:1.33333337"
     d="m 100.00732,1072.9878 v -3.3333 l 539.00002,-0.013 539.00006,-0.013 -6.6667,-3.1754 c -3.6667,-1.7465 -8.6954,-4.7127 -11.1749,-6.5915 -10.9016,-8.2609 -34.2836,-31.4253 -40.595,-40.2172 -3.7932,-5.2835 -12.5968,-16.4151 -19.5634,-24.73612 -6.9667,-8.3211 -14.7667,-17.9402 -17.3334,-21.3758 -21.3362,-28.5594 -28.5841,-35.6253 -54.8181,-53.4414 -13.5771,-9.2206 -14.7225,-9.8404 -31.47805,-17.0329 -19.72716,-8.468 -48.59402,-15.73 -90.24848,-22.7036 -30.21046,-5.0577 -37.29851,-5.8794 -64.12203,-7.4329 -7.33333,-0.4247 -18.26411,-1.6164 -24.29061,-2.6481 -6.02651,-1.0318 -20.42651,-2.498 -32.00001,-3.2583 -26.52469,-1.7424 -32.0779,-2.3617 -44.09237,-4.9168 -13.11504,-2.7893 -15.59316,-5.433 -17.09848,-18.2409 -0.85388,-7.2651 -0.75781,-7.5506 4.87015,-14.4735 9.83254,-12.095 24.29342,-26.412 31.94465,-31.62673 4.03333,-2.74896 19.33333,-11.48919 34,-19.42273 49.09094,-26.55446 79.50939,-45.96155 115.27674,-73.54703 31.53305,-24.31979 50.10051,-44.53395 61.12648,-66.54766 5.0914,-10.16512 14.93012,-34.88301 14.93012,-37.50904 0,-1.08588 2.36688,-8.82014 5.25973,-17.18724 10.78936,-31.20639 15.15356,-62.80555 14.99276,-108.55519 -0.1164,-33.12172 -2.4439,-60.35421 -10.25564,-120 -2.64121,-20.16667 -5.37412,-41.9942 -6.07313,-48.50561 -0.69901,-6.51143 -2.81483,-20.31143 -4.7018,-30.66667 -8.24552,-45.24938 -9.88201,-58.10612 -10.79749,-84.82772 -0.85836,-25.05483 0.9847,-48.21047 4.40249,-55.31142 4.12075,-8.56143 5.873,-10.91836 9.45903,-12.7232 2.04273,-1.02811 5.30668,-2.94091 7.25321,-4.25067 6.71053,-4.51526 17.12363,-2.57892 27.95613,5.19847 10.7154,7.69328 24.6891,32.68558 33.866,60.57 1.3002,3.95091 4.6988,11.68348 7.5524,17.18348 2.8536,5.5 7.8198,18.79664 11.0361,29.5481 3.2162,10.75144 8.3608,25.75144 11.4323,33.33333 3.0716,7.58188 8.758,22.78524 12.6365,33.78524 28.8145,81.72267 33.7904,95.16012 43.9424,118.66667 16.3408,37.83679 34.5507,75.76259 39.7077,82.69936 8.9884,12.09055 20.2705,24.82008 27.1766,30.66348 4.3018,3.63975 10.1205,8.7221 12.9305,11.29411 2.8101,2.57201 6.7101,5.57639 8.6667,6.67639 1.9566,1.1 8.6575,5.35352 14.8909,9.45228 6.2333,4.09874 23.6333,13.56564 38.6666,21.03753 22.3969,11.13172 29.5006,14.02955 39.3334,16.04532 6.6,1.35304 18.9631,4.29678 27.4736,6.54164 17.441,4.60052 20.6087,5.01399 53.193,6.9433 32.8696,1.94618 66.226,4.34409 82.6667,5.94265 3.3,0.32087 9.9,0.92545 14.6667,1.34351 4.7666,0.41806 10.4666,1.00258 12.6666,1.29894 2.2,0.29635 7.3,0.91464 11.3334,1.37398 10.257,1.1681 26.1869,5.36546 34.7593,9.15868 5.4507,2.41186 7.9447,4.4802 10.0883,8.36638 2.9097,5.27526 3.4408,14.14463 1.0738,17.93819 -0.6489,1.04001 -1.2822,2.56372 -1.4074,3.38601 -0.315,2.0682 -4.6258,8.50492 -5.6959,8.50492 -0.4813,0 -5.0624,3.0749 -10.18,6.83311 -10.0299,7.36552 -17.4437,11.02519 -43.2752,21.36171 -9.1505,3.66153 -22.3505,9.70117 -29.3333,13.42138 -6.983,3.72023 -21.6963,11.57782 -32.6963,17.4613 -34.4444,18.42303 -67.9076,46.9288 -87.9521,74.92251 -17.7572,24.79944 -35.0571,61.50444 -42.731,90.66234 -2.5097,9.5357 -7.2253,24.8751 -10.4791,34.0875 -3.2538,9.2124 -6.8925,21.9609 -8.086,28.3301 -1.1934,6.3692 -3.4036,15.6318 -4.9113,20.5835 -3.271,10.7425 -15.2991,44.40792 -18.2225,51.00322 -4.1263,9.3088 -13.9427,21.469 -25.7597,31.9099 -13.1986,11.6617 -22.0174,16.6631 -33.0403,18.7381 -4.7816,0.9002 -193.1709,1.352 -563.66668,1.352 H 100.00732 Z M 1170.0074,1008.065 c 21.1524,-2.0747 30.9249,-5.0695 44.4301,-13.61602 23.1463,-14.6476 39.9375,-36.8966 48.9001,-64.7945 1.2958,-4.0334 2.817,-7.9334 3.3806,-8.6667 0.5635,-0.7333 2.9621,-6.4333 5.3302,-12.6667 2.3681,-6.2333 5.4276,-13.8504 6.799,-16.9268 1.3713,-3.0765 2.4933,-6.0206 2.4933,-6.5425 0,-1.2243 18.7563,-42.0289 25.5815,-55.6531 2.8809,-5.7506 7.1707,-13.2506 9.5328,-16.6666 2.3622,-3.4161 8.1443,-12.98586 12.8493,-21.26626 10.8108,-19.02626 21.3697,-30.61773 21.3697,-23.45941 0,1.18359 -2.6417,6.43359 -5.8705,11.66667 -3.2288,5.23308 -7.2589,12.81469 -8.9558,16.84802 -1.6969,4.03338 -4.4152,9.30818 -6.0406,11.72188 -1.6255,2.4136 -3.989,7.5136 -5.2523,11.3333 -1.2633,3.8196 -3.9556,10.5448 -5.9828,14.9448 -8.9649,19.4576 -16.4941,41.7058 -18.6221,55.0265 -0.7638,4.7812 -1.8958,9.6562 -2.5156,10.8333 -2.2665,4.3045 -8.9816,41.0301 -7.7308,42.2808 1.6091,1.6091 3.31,-0.8925 4.1413,-6.091 0.4699,-2.9386 3.6033,-14.2019 6.9633,-25.0295 13.0339,-42.0035 17.4616,-53.815 28.6679,-76.4767 16.238,-32.8371 25.4996,-46.05447 51.198,-73.06544 11.7322,-12.33134 42.0512,-35.7984 56.2655,-43.54974 4.9873,-2.71967 14.7679,-8.11051 21.7345,-11.97963 6.9667,-3.86912 18.8167,-10.1044 26.3334,-13.85616 7.5166,-3.75177 13.6666,-7.14278 13.6666,-7.5356 0,-0.3928 -0.5012,-0.40445 -1.1137,-0.0259 -4.8049,2.9696 -92.2856,15.003 -122.2196,16.81189 -13.9333,0.84199 -27.2562,2.02845 -29.6064,2.63659 -6.2048,1.60556 -8.236,-1.24988 -4.5608,-6.41134 2.9805,-4.18572 1.2617,-3.59698 41.5005,-14.21472 12.8334,-3.3863 28.8651,-7.93436 35.626,-10.10678 6.761,-2.17244 18.461,-5.40962 26,-7.19375 7.5391,-1.78412 17.9074,-4.83753 23.0407,-6.78537 5.1333,-1.94783 15.0333,-5.21256 22,-7.25495 21.9609,-6.4382 46.7615,-14.59424 53.1633,-17.48357 5.8612,-2.64534 6.0124,-2.84567 3.0207,-4.00243 -4.7321,-1.82971 -43.8267,-6.22079 -63.5173,-7.13423 -16.8976,-0.78386 -21.3236,-1.00993 -57.3334,-2.92836 -9.5333,-0.50789 -26.3333,-1.0087 -37.3333,-1.11292 -17.4023,-0.16486 -21.7318,-0.66972 -33.3333,-3.88694 -7.3334,-2.03358 -20.5334,-5.148 -29.3334,-6.9209 -14.6139,-2.9442 -18.2435,-4.34024 -41.8979,-16.11544 -48.8514,-24.31817 -77.9875,-47.63063 -101.7175,-81.38628 -5.2682,-7.49391 -9.793,-13.41079 -10.0551,-13.14863 -0.2622,0.26218 2.1863,5.49355 5.4411,11.6253 3.2548,6.13173 7.9879,15.04861 10.518,19.81528 10.0549,18.94312 21.5597,33.8121 42.3781,54.76973 22.0005,22.14764 27.2889,26.15212 49.3333,37.35583 10.5037,5.33833 17.3298,7.7966 27.3334,9.84344 15.4224,3.15561 17.2794,5.46896 6.6666,8.30483 -6.6765,1.78404 -37.0973,2.57401 -66,1.7139 -14.0263,-0.41741 -48.1659,2.38339 -74.957,6.14944 -13.0943,1.84068 -15.0474,1.82099 -23.3334,-0.23529 -4.9736,-1.23427 -11.1429,-3.31573 -13.7096,-4.62547 -7.0409,-3.59288 -20.3669,-17.16645 -23.5064,-23.94308 -6.518,-14.06902 -10.3286,-40.2168 -11.853,-81.33333 -0.8527,-23.00047 -2.5124,-39.99972 -5.2723,-54 -1.0119,-5.13334 -3.112,-17.43334 -4.6667,-27.33334 -2.8944,-18.43027 -10.8672,-49.50145 -20.0326,-78.07003 -2.8356,-8.83852 -6.7317,-22.33852 -8.658,-30 -1.9262,-7.66149 -4.6554,-17.70661 -6.0649,-22.3225 -1.4094,-4.61588 -4.427,-17.51588 -6.7057,-28.66667 -2.2787,-11.15078 -7.7051,-34.07414 -12.0586,-50.9408 -4.3535,-16.86667 -10.2769,-41.46667 -13.163,-54.66667 -9.1704,-41.9418 -9.6519,-43.93004 -11.5336,-47.62715 -3.7917,-7.4496 -10.275,-7.88848 -15.16124,-1.02633 -3.89415,5.46882 -4.64714,17.25109 -2.74123,42.8928 1.53443,20.6438 2.91249,31.4574 7.53077,59.09401 6.3469,37.98059 8.4395,51.63408 9.1956,60.00001 0.464,5.13333 1.9785,19.23333 3.3655,31.33333 1.387,12.1 3.4633,34.6 4.6139,50 1.1506,15.4 2.7257,35.8 3.5002,45.33333 2.3002,28.30994 2.9647,73.21213 1.3578,91.74477 -1.5434,17.80012 -2.4317,22.55993 -7.5131,40.25524 -1.6846,5.86666 -3.4543,13.06666 -3.9327,16 -0.4783,2.93333 -4.7316,13.88433 -9.4518,24.33555 -4.72024,10.45118 -8.58222,19.80438 -8.58222,20.78484 0,3.2704 -12.86692,28.07486 -20.16815,38.87958 -17.00517,25.16506 -65.07815,63.52379 -119.83186,95.6171 -6.23333,3.6536 -28.43333,15.64024 -49.33333,26.63697 -39.37255,20.71628 -42.38268,22.57008 -54.75536,33.72258 -4.08212,3.6795 -9.03212,8.0361 -11,9.6812 -1.9679,1.6452 -3.57798,3.8952 -3.57798,5 0,2.6313 9.90302,2.6792 25.33334,0.1224 21.56777,-3.5738 48.73928,-7.4546 66,-9.4265 9.53333,-1.0891 23.33333,-2.8706 30.66667,-3.959 7.33333,-1.0884 19.33333,-2.6226 26.66666,-3.4093 7.33334,-0.7868 17.83334,-2.2977 23.33334,-3.3576 31.99094,-6.165 45.62049,-9.0634 53.47708,-11.3721 9.58157,-2.81564 22.51076,-3.40293 26.61057,-1.2088 4.13156,2.2112 3.10307,5.876 -2.38324,8.4922 -8.38817,4.0001 -115.98199,31.299 -144.37108,36.6302 -8.43333,1.5837 -23.03761,4.0228 -32.45396,5.4202 -9.41635,1.3973 -17.46635,2.8864 -17.88889,3.3089 -0.42254,0.4226 3.43401,0.7683 8.57013,0.7683 5.13612,0 15.28612,0.8964 22.55556,1.9921 7.26944,1.0957 19.83291,1.9957 27.9188,2 30.28923,0.016 92.58536,10.6138 134.6317,22.9031 11.43905,3.3434 16.34628,5.337 33.11432,13.4532 15.1563,7.3361 20.939,11.0928 37.8083,24.5618 11.8203,9.4376 14.8576,12.4086 33.7262,32.9895 4.7568,5.1885 12.7948,13.6336 17.8621,18.7669 5.0674,5.1334 12.4839,13.4247 16.4812,18.4251 3.9973,5.0005 8.2594,9.41542 9.4712,9.81092 1.2118,0.3956 4.6034,1.7409 7.5367,2.9896 14.2808,6.0791 11.5077,5.7308 30.6667,3.8516 z m -27.9933,-32.72592 c -3.7534,-0.9492 -13.5497,-7.8597 -21.0363,-14.8394 -8.4493,-7.8772 -18.4175,-21.4991 -23.5478,-32.1786 -2.2898,-4.7666 -8.9346,-14.6182 -14.7661,-21.8923 -11.4566,-14.2906 -24.0024,-24.7602 -36.88,-30.7766 -9.4089,-4.3958 -13.1928,-7.6864 -16.6961,-14.5194 -6.6218,-12.9153 3.7429,-33.9711 22.0024,-44.6977 3.2276,-1.896 8.1862,-4.9473 11.0192,-6.7806 2.833,-1.8334 9.969,-5.3468 15.8578,-7.8077 16.23,-6.78238 76.6418,-26.56709 112.0402,-36.69284 8.8,-2.51725 17.5,-5.21389 19.3333,-5.99252 1.8333,-0.77864 10.5333,-3.23029 19.3333,-5.44812 8.8,-2.21782 20.2,-5.53576 25.3334,-7.37316 16.8725,-6.03929 19.4135,-3.35254 4.1059,4.34135 -25.7727,12.95387 -71.2623,35.48343 -75.4393,37.36268 -9.6732,4.35204 -38.4235,24.37271 -42.9438,29.90451 -6.3083,7.7198 -8.0459,11.398 -13.0261,27.5752 -7.1116,23.1005 -7.8308,44.5878 -2.5259,75.4639 3.6383,21.1759 13.7251,40.0247 23.8292,44.5287 5.8854,2.6235 10.6507,6.4111 10.6582,8.4713 0.01,1.9465 -1.152,2.3077 -6.9916,2.1787 -3.85,-0.085 -8.197,-0.4574 -9.6599,-0.8274 z M 843.59862,788.1112 c 5.60949,-9.80415 16.06696,-19.23879 27.60073,-24.90114 6.22402,-3.0556 12.132,-5.55562 13.12886,-5.55562 0.99685,0 2.38246,-0.55288 3.07913,-1.22864 0.69667,-0.67575 9.06667,-3.77512 18.6,-6.88748 9.53333,-3.11238 19.20113,-6.70307 21.48399,-7.97932 7.35972,-4.11452 8.95248,-4.92023 23.84935,-12.06443 8.06666,-3.86857 16.16666,-8.00003 18,-9.18099 1.83333,-1.18096 7.53333,-3.89177 12.66666,-6.02405 22.13886,-9.19596 39.31236,-22.21318 60.77566,-46.0669 17.514,-19.46448 24.2294,-31.01424 30.6022,-52.63274 5.1759,-17.55799 5.9942,-19.26879 9.216,-19.26879 2.1724,0 2.6139,1.44185 3.3681,11 0.749,9.49148 0.4117,12.50092 -2.46,21.94452 -6.3165,20.77205 -14.4866,34.79951 -29.0644,49.90111 -7.1234,7.37938 -29.4557,23.82104 -32.3556,23.82104 -0.4633,0 -2.3513,0.98866 -4.1955,2.19702 -3.0557,2.00215 -14.7348,7.33039 -43.81772,19.99042 -5.82887,2.53735 -18.12887,8.37367 -27.33334,12.9696 -14.94949,7.46449 -23.65061,11.16707 -54.7354,23.29144 -4.76667,1.8592 -9.26667,3.78171 -10,4.27223 -0.73333,0.49053 -5.53333,3.15641 -10.66667,5.92417 -10.64533,5.73971 -19.85825,12.20296 -24.56574,17.23392 -4.43124,4.73572 -6.09207,4.34075 -3.17631,-0.75537 z m 289.74208,-38.89812 c 0,-2.36779 3.2046,-3.78074 21.3333,-9.40607 21.4195,-6.64645 26.0828,-7.54017 28.8367,-5.52651 5.8091,4.24779 -1.2906,7.59215 -28.2774,13.32027 -18.0917,3.84005 -21.8926,4.11999 -21.8926,1.61231 z M 980.89624,687.43221 c -2.0608,-2.0608 -0.55708,-5.5602 4.515,-10.50718 2.97213,-2.89882 7.25424,-8.2706 9.51577,-11.93726 2.26153,-3.66667 5.13429,-8.16667 6.38389,-10 10.7962,-15.83932 31.3751,-61.18644 37.8174,-83.33334 11.0829,-38.10056 14.8138,-58.58573 14.5701,-80 -0.4588,-40.30584 -4.103,-62.39479 -22.3272,-135.33334 -5.0091,-20.04825 -8.5483,-39.69225 -13.4315,-74.55136 -1.8067,-12.89675 -4.157,-27.94864 -5.223,-33.44864 -5.5937,-28.86117 -11.7063,-79.598 -10.4916,-87.08372 0.9429,-5.81032 2.7471,-6.39556 3.8523,-1.24961 0.4331,2.01666 3.3841,13.86666 6.5579,26.33333 3.1737,12.46667 7.4014,30.16667 9.3949,39.33333 1.9935,9.16667 6.2396,27.76667 9.4359,41.33334 3.1963,13.56666 7.5982,33.70869 9.7819,44.76007 2.1838,11.05136 6.9454,31.75136 10.5813,46 3.6359,14.24862 6.9963,28.3066 7.4676,31.23993 0.4713,2.93333 2.3215,11.93333 4.1117,20 1.7901,8.06667 4.4489,20.06667 5.9083,26.66667 6.6215,29.94488 8.1076,67.66377 4.1499,105.33333 -1.6538,15.74074 -2.2148,18.9841 -4.9374,28.54651 -5.0783,17.83566 -34.5118,75.18463 -47.9706,93.46712 -6.8135,9.25536 -11.2749,12.77878 -25.18127,19.88659 -10.74028,5.48957 -12.86821,6.15732 -14.48129,4.54423 z"
     id="path751"
     inkscape:connector-curvature="0" />
</svg>
